#!OML:ASF E:\Style3\Style3.ASF
:FULLY-SPECIFIED
:DEGREES
1816
root -0.396858 17.5268 -1.15676 -609.82 96.4259 -677.368
lowerback 206.873 175.788 176.32
upperback 4.61559 4.85027 1.99507
thorax -10.1946 2.49874 2.64133
lowerneck -4.05422 -1.38492 -6.99236
upperneck -15.3857 3.76915 32.4455
head -4.30729 1.44048 12.1678
rclavicle -8.98507e-014 -5.43179e-014
rhumerus -63.9102 20.6152 -80.588
rradius 75.7473
rwrist -23.2069
rhand 23.7529 17.6495
rfingers 7.12502
rthumb 48.0138 -4.55689
lclavicle -8.98507e-014 -5.43179e-014
lhumerus -60.6824 -20.945 88.603
lradius 82.1977
lwrist 45.1082
lhand 17.0033 41.109
lfingers 7.12502
lthumb 41.7339 65.7876
rfemur -78.6578 5.7415 -7.99607
rtibia 17.4589
rfoot 14.6589 -34.9267
rtoes -31.9068
lfemur -71.959 -15.1386 24.7532
ltibia -2.47487e-014
lfoot -25.3537 50.3356
ltoes 23.2542
1817
root -0.402294 17.5214 -1.14104 -608.567 96.2904 -676.246
lowerback 206.809 175.64 176.382
upperback 4.61297 5.07912 2.18706
thorax -10.1979 2.6055 2.74232
lowerneck -3.9321 -1.45029 -6.75308
upperneck -15.5348 3.6675 32.25
head -4.35105 1.35093 12.0432
rclavicle -5.88403e-014 5.85172e-015
rhumerus -64.0141 20.2608 -80.2527
rradius 75.8379
rwrist -23.2188
rhand 23.7408 17.4109
rfingers 7.12502
rthumb 48.0026 -4.80076
lclavicle -5.88403e-014 5.85172e-015
lhumerus -60.762 -21.2353 88.8101
lradius 82.2831
lwrist 45.0359
lhand 17.4756 41.3177
lfingers 7.12502
lthumb 42.1765 65.8483
rfemur -79.1293 5.74033 -8.17867
rtibia 17.9303
rfoot 14.1203 -35.2428
rtoes -31.3296
lfemur -71.9843 -14.9391 24.6118
ltibia -3.17062e-014
lfoot -24.661 50.3958
ltoes 22.6975
1818
root -0.412606 17.5069 -1.12631 -607.82 96.0203 -675.791
lowerback 206.653 175.584 176.468
upperback 4.55611 5.19023 2.30318
thorax -10.1971 2.65606 2.78967
lowerneck -3.43765 -1.51228 -6.23564
upperneck -16.245 3.66641 31.6764
head -4.65638 1.23408 11.7359
rclavicle -6.04305e-014 -8.5347e-014
rhumerus -64.2606 20.1217 -80.0936
rradius 76.0252
rwrist -23.5323
rhand 23.8167 17.7131
rfingers 7.12502
rthumb 48.0726 -4.4658
lclavicle -6.04305e-014 -8.5347e-014
lhumerus -60.7694 -21.4326 88.9475
lradius 82.2979
lwrist 44.9415
lhand 18.0798 41.2772
lfingers 7.12502
lthumb 42.7422 65.6136
rfemur -79.7165 5.51928 -8.48099
rtibia 18.422
rfoot 13.6328 -35.3922
rtoes -31.2658
lfemur -72.2537 -14.7175 24.4262
ltibia 4.47266e-014
lfoot -24.7115 50.3173
ltoes 22.7822
1819
root -0.416475 17.5004 -1.11152 -606.599 95.7007 -674.705
lowerback 206.605 175.478 176.458
upperback 4.56581 5.34007 2.44113
thorax -10.1894 2.72789 2.89876
lowerneck -3.17777 -1.60079 -5.9696
upperneck -16.6732 3.57393 31.3124
head -4.81338 1.12118 11.5566
rclavicle -3.10104e-014 -9.06955e-016
rhumerus -64.3356 19.8715 -79.7677
rradius 76.062
rwrist -23.8618
rhand 24.1994 18.3583
rfingers 7.12502
rthumb 48.4252 -3.65369
lclavicle -3.10104e-014 -9.06955e-016
lhumerus -60.7541 -21.727 89.2133
lradius 82.3001
lwrist 45.0291
lhand 18.2543 41.1507
lfingers 7.12502
lthumb 42.9055 65.43
rfemur -79.8873 5.4218 -8.82887
rtibia 18.4419
rfoot 13.5525 -35.4342
rtoes -31.319
lfemur -72.3493 -14.6116 24.1249
ltibia 1.44119e-014
lfoot -24.7402 50.2127
ltoes 22.851
1820
root -0.415773 17.5019 -1.09406 -604.784 95.4123 -672.876
lowerback 206.652 175.337 176.39
upperback 4.626 5.52301 2.61527
thorax -10.1854 2.81768 3.06678
lowerneck -3.08286 -1.70879 -6.00731
upperneck -16.8106 3.41575 31.2561
head -4.83751 1.01853 11.552
rclavicle -1.66979e-014 -1.64463e-015
rhumerus -64.3511 19.6113 -79.3661
rradius 76.0813
rwrist -24.1836
rhand 24.4484 18.413
rfingers 7.12502
rthumb 48.6542 -3.48873
lclavicle -1.66979e-014 -1.64463e-015
lhumerus -60.7707 -21.9519 89.5378
lradius 82.3014
lwrist 45.0718
lhand 17.9493 41.1492
lfingers 7.12502
lthumb 42.6202 65.528
rfemur -79.9821 5.48276 -9.14811
rtibia 18.5326
rfoot 13.4266 -35.5115
rtoes -31.3035
lfemur -72.2535 -14.5679 23.7828
ltibia -2.37548e-014
lfoot -24.5858 50.1372
ltoes 22.6927
1821
root -0.419254 17.5007 -1.07693 -603.655 95.1132 -671.792
lowerback 206.662 175.319 176.453
upperback 4.67438 5.57666 2.71453
thorax -10.1454 2.84199 3.12384
lowerneck -3.00604 -1.79383 -5.97008
upperneck -16.9495 3.3022 31.2107
head -4.86917 0.936611 11.5363
rclavicle -1.15295e-013 -2.05253e-014
rhumerus -64.3835 19.4762 -79.1501
rradius 76.1426
rwrist -24.4269
rhand 24.4257 18.2718
rfingers 7.12502
rthumb 48.6334 -3.63997
lclavicle -1.15295e-013 -2.05253e-014
lhumerus -60.7544 -22.0961 89.6633
lradius 82.2781
lwrist 45.129
lhand 17.721 41.2553
lfingers 7.12502
lthumb 42.4064 65.7077
rfemur -80.0654 5.43483 -9.44719
rtibia 18.5194
rfoot 13.596 -35.489
rtoes -31.6092
lfemur -72.2867 -14.5342 23.494
ltibia -5.9536e-014
lfoot -24.2253 50.1285
ltoes 22.392
1822
root -0.426538 17.4931 -1.06037 -603.757 94.7856 -672.068
lowerback 206.55 175.471 176.673
upperback 4.68032 5.44646 2.71481
thorax -10.0503 2.77473 3.0513
lowerneck -2.85108 -1.81027 -5.82472
upperneck -17.1166 3.32211 31.1904
head -4.95546 0.90841 11.5101
rclavicle 1.26427e-013 8.03991e-014
rhumerus -64.4202 19.4544 -79.1771
rradius 76.1725
rwrist -24.6064
rhand 24.3034 18.2916
rfingers 7.12502
rthumb 48.5208 -3.67451
lclavicle 1.26427e-013 8.03991e-014
lhumerus -60.7727 -22.0809 89.499
lradius 82.2581
lwrist 45.2072
lhand 18.0377 41.3732
lfingers 7.12502
lthumb 42.7028 65.7233
rfemur -80.0339 5.20607 -9.72614
rtibia 18.1832
rfoot 14.0259 -35.446
rtoes -31.8517
lfemur -72.5224 -14.4941 23.2854
ltibia 4.02539e-014
lfoot -23.7041 50.1545
ltoes 21.8293
1823
root -0.421438 17.5043 -1.03686 -599.458 94.6549 -667.582
lowerback 206.808 175.402 176.642
upperback 4.76761 5.52662 2.76703
thorax -10.0983 2.81255 3.08822
lowerneck -2.79104 -1.81207 -5.75524
upperneck -17.1422 3.3162 31.1655
head -4.97421 0.8896 11.4879
rclavicle -2.54444e-014 -5.92006e-014
rhumerus -64.4413 19.4782 -79.1747
rradius 76.224
rwrist -24.8792
rhand 24.284 18.0204
rfingers 7.12502
rthumb 48.5029 -3.95434
lclavicle -2.54444e-014 -5.92006e-014
lhumerus -60.8198 -21.9978 89.3578
lradius 82.1795
lwrist 45.2196
lhand 18.5982 41.168
lfingers 7.12502
lthumb 43.2271 65.3333
rfemur -79.8775 5.5801 -9.97807
rtibia 17.8716
rfoot 13.9548 -35.5874
rtoes -31.4254
lfemur -72.0757 -14.4231 22.909
ltibia 6.95746e-014
lfoot -23.3543 50.1485
ltoes 21.3382
1824
root -0.379792 17.5597 -0.993943 -585.418 95.1718 -651.996
lowerback 208.494 174.698 175.842
upperback 5.17107 6.17192 2.94138
thorax -10.6468 3.13238 3.42151
lowerneck -2.80449 -1.81157 -5.87973
upperneck -17.1074 3.31184 31.2644
head -4.95981 0.890375 11.5533
rclavicle 5.80451e-014 2.2531e-014
rhumerus -64.3848 19.6061 -79.1861
rradius 76.2067
rwrist -25.0333
rhand 24.1954 17.6127
rfingers 7.12502
rthumb 48.4214 -4.40106
lclavicle 5.80451e-014 2.2531e-014
lhumerus -60.8628 -21.8828 89.3584
lradius 82.1225
lwrist 45.1148
lhand 19.0541 40.6885
lfingers 7.12502
lthumb 43.653 64.6996
rfemur -78.902 7.76311 -10.1907
rtibia 17.4369
rfoot 13.9347 -35.6267
rtoes -31.3019
lfemur -69.5364 -14.5529 21.9139
ltibia -1.72585e-014
lfoot -23.5963 49.9338
ltoes 21.0698
1825
root -0.384487 17.5507 -0.985921 -584.281 94.702 -650.847
lowerback 208.78 175.025 176.184
upperback 5.19044 5.84505 2.88337
thorax -10.6957 2.97103 3.2712
lowerneck -2.81152 -1.76349 -6.04988
upperneck -17.0697 3.38531 31.3821
head -4.96297 0.933954 11.6354
rclavicle -2.38542e-015 4.08751e-015
rhumerus -64.2999 19.8982 -79.3278
rradius 76.2009
rwrist -25.0099
rhand 23.8507 17.2394
rfingers 7.12502
rthumb 48.1039 -4.92483
lclavicle -2.38542e-015 4.08751e-015
lhumerus -60.9117 -21.6357 89.2706
lradius 82.1086
lwrist 45.0296
lhand 19.238 40.0293
lfingers 7.12502
lthumb 43.8245 63.9773
rfemur -78.5424 7.49504 -10.5802
rtibia 17.008
rfoot 14.186 -35.597
rtoes -31.4314
lfemur -69.7166 -14.766 21.5531
ltibia -5.04447e-014
lfoot -23.2454 49.9212
ltoes 20.5728
1826
root -0.380476 17.5583 -0.956975 -578.531 94.7368 -644.928
lowerback 209.032 175.041 176.103
upperback 5.28246 5.79508 2.8896
thorax -10.7185 2.94966 3.33407
lowerneck -2.77249 -1.69146 -6.2839
upperneck -17.0171 3.50063 31.5533
head -4.98046 0.998221 11.7529
rclavicle 5.64548e-014 3.54085e-014
rhumerus -64.1763 20.189 -79.461
rradius 76.2374
rwrist -24.888
rhand 23.6898 17.0295
rfingers 7.12502
rthumb 47.9556 -5.20398
lclavicle 5.64548e-014 3.54085e-014
lhumerus -60.9718 -21.3232 89.1052
lradius 82.1851
lwrist 44.9868
lhand 19.0714 39.7894
lfingers 7.12502
lthumb 43.6691 63.7946
rfemur -78.4601 7.95897 -10.8838
rtibia 16.6779
rfoot 14.3494 -35.6073
rtoes -31.5715
lfemur -69.2076 -14.5799 21.1219
ltibia -1.44119e-014
lfoot -22.8386 49.8896
ltoes 19.7099
1827
root -0.388351 17.5497 -0.943611 -575.162 94.5154 -641.676
lowerback 209.179 175.44 176.532
upperback 5.26487 5.38738 2.6945
thorax -10.7146 2.74492 3.01664
lowerneck -2.76525 -1.55131 -6.44027
upperneck -16.8932 3.71947 31.7574
head -4.9955 1.11945 11.8625
rclavicle -9.54166e-015 -9.86469e-015
rhumerus -63.9602 20.486 -79.7837
rradius 76.1472
rwrist -24.7021
rhand 23.7002 17.0125
rfingers 7.12502
rthumb 47.9652 -5.21656
lclavicle -9.54166e-015 -9.86469e-015
lhumerus -60.9731 -20.8593 88.61
lradius 82.292
lwrist 45.1095
lhand 18.9385 40.0791
lfingers 7.12502
lthumb 43.545 64.1296
rfemur -78.9801 7.83809 -11.2513
rtibia 17.334
rfoot 14.0364 -35.667
rtoes -32.1244
lfemur -69.3002 -14.495 20.8126
ltibia 1.95554e-014
lfoot -22.6022 49.7917
ltoes 19.5153
1828
root -0.405305 17.5331 -0.932691 -572.101 94.2148 -639.05
lowerback 208.975 175.991 177.152
upperback 5.18299 4.8392 2.40034
thorax -10.5824 2.46783 2.5446
lowerneck -2.84616 -1.4206 -6.65472
upperneck -16.6681 3.92944 32.1278
head -4.96349 1.25056 12.0493
rclavicle -4.21423e-014 -4.72114e-014
rhumerus -63.7111 20.943 -80.2517
rradius 76.0222
rwrist -24.7998
rhand 23.6805 16.9746
rfingers 7.12502
rthumb 47.9471 -5.26293
lclavicle -4.21423e-014 -4.72114e-014
lhumerus -60.931 -20.2509 87.9116
lradius 82.3124
lwrist 45.4021
lhand 19.0604 40.3365
lfingers 7.12502
lthumb 43.6588 64.3455
rfemur -79.6131 7.40415 -11.658
rtibia 17.7166
rfoot 13.901 -35.7098
rtoes -32.4209
lfemur -69.789 -14.2561 20.6112
ltibia 4.1546e-014
lfoot -22.3235 49.7408
ltoes 19.2947
